<svg xmlns="http://www.w3.org/2000/svg" width="74.295" height="74.297" viewBox="0 0 74.295 74.297"><path fill="#6065fc" d="M20.261 6.754h33.77v10.131h-33.77z"/><path opacity=".5" d="M20.261 23.639h6.754v6.754h-6.754zm13.508 0h6.754v6.754h-6.754zm13.508 0h6.754v6.754h-6.754zm-27.016 11.82h6.754v6.754h-6.754zm13.508 0h6.754v6.754h-6.754zm13.508 0h6.754v6.754h-6.754zM20.261 47.278h6.754v6.754h-6.754zm13.508 0h6.754v6.754h-6.754zm13.508 0h6.754v6.754h-6.754z" fill="#6065fc"/><path fill="#6065fc" d="M1.687 1.689h6.754V11.82H1.687z"/><g fill="#231f20"><path d="M6.754 0H3.377A3.376 3.376 0 000 3.377v62.475a1.689 1.689 0 00.169.755l3.377 6.754a1.688 1.688 0 003.023 0l3.377-6.754a1.674 1.674 0 00.186-.755V3.377A3.377 3.377 0 006.754 0zm0 3.377v6.754H3.377V3.377zM5.711 67.541h-1.29l-1.044-2.087V13.508h3.377v51.946zm67.542-40.4a1.688 1.688 0 00-1.84.366L61.282 37.641l2.388 2.388 7.249-7.249v4.367h-1.691v3.377h1.689v3.377h-1.689v3.377h1.689v3.377h-1.689v3.377h1.689v3.377h-1.689v3.377h1.689v3.377h-1.689v3.378h1.689v3.377H67.54v-1.689h-3.377v1.689h-3.377v-1.689h-3.377v1.689h-3.377v-1.689h-3.377v1.689h-3.377v-1.689h-3.377v1.689h-3.373v-1.689h-3.38v1.689h-4.367l7.249-7.249-2.387-2.387-10.131 10.131a1.688 1.688 0 001.194 2.882h43.9a1.689 1.689 0 001.688-1.688v-43.9a1.691 1.691 0 00-1.041-1.566z"/><path d="M50.536 62.475l-1.074-1.074-1.569 1.569a1.688 1.688 0 001.194 2.882h15.077a1.689 1.689 0 001.687-1.691V49.087a1.688 1.688 0 00-2.882-1.194L61.4 49.462l1.074 1.074v11.94z"/><path d="M60.787 55.654V5.133A5.139 5.139 0 0055.653 0H18.641a5.14 5.14 0 00-5.133 5.133v50.521a5.14 5.14 0 005.133 5.133h37.012a5.141 5.141 0 005.134-5.133zm-43.9 0V5.133a1.757 1.757 0 011.756-1.756h37.01a1.757 1.757 0 011.76 1.756v50.521a1.757 1.757 0 01-1.756 1.756H18.641a1.756 1.756 0 01-1.756-1.756z"/><path d="M20.263 18.574h33.77a1.689 1.689 0 001.689-1.689V6.758a1.689 1.689 0 00-1.689-1.689h-33.77a1.689 1.689 0 00-1.692 1.689v10.128a1.688 1.688 0 001.692 1.688zm1.689-10.131h30.393v6.754H21.951V8.443zm5.065 13.508h-6.754a1.689 1.689 0 00-1.693 1.689v6.754a1.689 1.689 0 001.689 1.689h6.754a1.689 1.689 0 001.689-1.689V23.64a1.689 1.689 0 00-1.685-1.689zm-1.689 6.754h-3.377v-3.377h3.377zm15.197-6.754h-6.754a1.689 1.689 0 00-1.689 1.689v6.754a1.689 1.689 0 001.689 1.689h6.754a1.689 1.689 0 001.688-1.689V23.64a1.689 1.689 0 00-1.688-1.689zm-1.689 6.754h-3.377v-3.377h3.377zm15.197-6.754h-6.754a1.689 1.689 0 00-1.688 1.689v6.754a1.689 1.689 0 001.688 1.689h6.754a1.689 1.689 0 001.689-1.689V23.64a1.689 1.689 0 00-1.689-1.689zm-1.689 6.754h-3.377v-3.377h3.377zM27.017 33.77h-6.754a1.689 1.689 0 00-1.693 1.689v6.754a1.689 1.689 0 001.689 1.689h6.754a1.689 1.689 0 001.689-1.689v-6.754a1.689 1.689 0 00-1.685-1.689zm-1.689 6.754h-3.377v-3.376h3.377zm15.197-6.754h-6.754a1.689 1.689 0 00-1.689 1.689v6.754a1.689 1.689 0 001.689 1.689h6.754a1.689 1.689 0 001.688-1.689v-6.754a1.689 1.689 0 00-1.688-1.689zm-1.689 6.754h-3.377v-3.376h3.377zm15.197-6.754h-6.754a1.689 1.689 0 00-1.688 1.689v6.754a1.689 1.689 0 001.688 1.689h6.754a1.689 1.689 0 001.689-1.689v-6.754a1.689 1.689 0 00-1.689-1.689zm-1.689 6.754h-3.377v-3.376h3.377zM27.017 45.59h-6.754a1.689 1.689 0 00-1.693 1.689v6.754a1.689 1.689 0 001.689 1.689h6.754a1.689 1.689 0 001.689-1.689v-6.754a1.689 1.689 0 00-1.685-1.689zm-1.689 6.754h-3.377v-3.377h3.377zm15.197-6.754h-6.754a1.689 1.689 0 00-1.689 1.689v6.754a1.689 1.689 0 001.689 1.689h6.754a1.689 1.689 0 001.688-1.689v-6.754a1.689 1.689 0 00-1.688-1.689zm-1.689 6.754h-3.377v-3.377h3.377zm16.885-5.065a1.689 1.689 0 00-1.689-1.689h-6.754a1.689 1.689 0 00-1.689 1.689v6.754a1.689 1.689 0 001.689 1.689h6.754a1.689 1.689 0 001.689-1.689zm-3.377 5.065h-3.377v-3.377h3.377z"/></g></svg>