<svg xmlns="http://www.w3.org/2000/svg" width="35.054" height="20" viewBox="0 0 35.054 20"><g id="internet" transform="translate(0 -117.748)"><path id="Path_67" data-name="Path 67" d="M34.868 135.811a2.4 2.4 0 00-.119-.228 18.168 18.168 0 00-3.486-4.034l-.036-.036-.018-.018-.018-.018h-.018q-1.168-1.113-1.478-1.5a1.405 1.405 0 01-.256-1.479 13.781 13.781 0 011.643-2.391q.749-.967 1.186-1.551 3.158-4.2 2.738-5.366l-.109-.182a1.067 1.067 0 00-.565-.3 2.874 2.874 0 00-1.168-.046l-5.256.036a.682.682 0 00-.365.009l-.237.055-.091.046-.073.055a.811.811 0 00-.2.191 1.252 1.252 0 00-.182.319 29.8 29.8 0 01-1.953 4.106q-.675 1.132-1.241 1.962a9.44 9.44 0 01-.949 1.223 6.62 6.62 0 01-.694.63q-.31.238-.474.2c-.11-.024-.213-.049-.311-.073a1.214 1.214 0 01-.41-.447 2 2 0 01-.21-.712q-.054-.429-.064-.739t.009-.876q.019-.566.018-.767 0-.694.027-1.506t.046-1.287q.019-.475.018-1a4.217 4.217 0 00-.064-.83 2.841 2.841 0 00-.191-.584.984.984 0 00-.374-.438 2.109 2.109 0 00-.611-.246 12.145 12.145 0 00-2.464-.237 11.973 11.973 0 00-4.362.438 2.459 2.459 0 00-.693.547q-.329.4-.091.438a2.237 2.237 0 011.551.785l.11.219a3.491 3.491 0 01.256.84 8.47 8.47 0 01.164 1.332 14.207 14.207 0 010 2.281q-.091.949-.173 1.478a2.96 2.96 0 01-.246.858 3.619 3.619 0 01-.219.4.314.314 0 01-.091.091 1.367 1.367 0 01-.493.091 1.157 1.157 0 01-.621-.256 4.378 4.378 0 01-.757-.7 9.393 9.393 0 01-.885-1.25q-.493-.8-1.022-1.9L9 122.916q-.274-.511-.748-1.487t-.84-1.889a1.2 1.2 0 00-.438-.584l-.091-.055a1.249 1.249 0 00-.292-.155 1.937 1.937 0 00-.42-.119l-5 .036a1.271 1.271 0 00-1.04.347l-.073.109a.59.59 0 00-.055.292 1.453 1.453 0 00.11.493q1.1 2.574 2.382 4.964t2.236 3.851q.949 1.46 1.935 2.756t1.3 1.661q.32.366.5.548l.456.438a10.829 10.829 0 001.287 1.049 21.951 21.951 0 001.88 1.205 10.2 10.2 0 002.4.967 8.3 8.3 0 002.665.3h2.1a1.454 1.454 0 00.967-.4l.073-.091a1.21 1.21 0 00.137-.337 1.854 1.854 0 00.064-.5 6.014 6.014 0 01.118-1.414 3.718 3.718 0 01.311-.949 2.333 2.333 0 01.392-.538 1.586 1.586 0 01.311-.265 1.193 1.193 0 01.145-.064 1.158 1.158 0 011.032.283 6.059 6.059 0 011.113 1.059q.52.63 1.25 1.414a8.59 8.59 0 001.278 1.168l.365.219a4.444 4.444 0 00.949.4 2.046 2.046 0 001.022.091l4.672-.073a2.117 2.117 0 001.077-.228.9.9 0 00.456-.5 1.413 1.413 0 00.009-.621 2.291 2.291 0 00-.127-.486z"/></g></svg>