<svg xmlns="http://www.w3.org/2000/svg" width="74.3" height="90.976" viewBox="0 0 74.3 90.976"><rect width="55" height="87" rx="4" transform="translate(1.3 1.976)" fill="#fff"/><path d="M30.341 26.534a22.717 22.717 0 00-.409 21.955l-3.73 8.188-3.461.941 4.155-9.128a22.714 22.714 0 0121.637-33.267 22.779 22.779 0 00-18.192 11.311z" fill="#fff"/><path d="M40.937 1.516v3.033a3.042 3.042 0 01-3.033 3.033h-18.2a3.042 3.042 0 01-3.027-3.033V1.516z" fill="#6065fc"/><path d="M69.727 49.279a22.744 22.744 0 01-34.616 5.792l-9.34 2.547 4.155-9.128a22.717 22.717 0 0126.17-32.493 22.018 22.018 0 015.307 2.214 22.753 22.753 0 018.324 31.068z" fill="#6065fc" opacity=".5"/><path d="M56.098 43.608l-.516-.516-1.077 1.061a3.033 3.033 0 01-4.291 0l-6.425-6.429a3.033 3.033 0 010-4.291l1.077-1.061-4.295-4.291-1.077 1.061a7.581 7.581 0 000 10.72l8.582 8.582a7.554 7.554 0 005.353 2.217 7.311 7.311 0 002.669-.5 7.231 7.231 0 002.7-1.713l1.077-1.061z" fill="#fff"/><path d="M56.642 37.725l-.546.546-1.593 1.592a1.528 1.528 0 000 2.153l1.077 1.077.516.516 3.775 3.775 1.062 1.061a1.528 1.528 0 002.153 0l2.138-2.138zM41.633 22.714l8.582 8.582-2.138 2.138a1.528 1.528 0 01-2.153 0l-1.061-1.061-4.291-4.291-1.078-1.077a1.528 1.528 0 010-2.153z" fill="#fff"/><path d="M57.72 36.651a1.56 1.56 0 00-2.144 0l-2.144 2.144a3.033 3.033 0 000 4.288 1.516 1.516 0 01-2.146 0l-6.432-6.432a1.516 1.516 0 010-2.146 3.033 3.033 0 004.288 0l2.144-2.144a1.516 1.516 0 000-2.144L42.71 21.64a1.516 1.516 0 00-2.144 0l-2.147 2.146a3.033 3.033 0 000 4.288 9.108 9.108 0 000 12.865l8.58 8.578a9.11 9.11 0 0012.865 0 3.033 3.033 0 004.288 0l2.146-2.144a1.516 1.516 0 000-2.144zM41.639 24.856l6.433 6.435L47 32.363l-6.433-6.435zM57.72 47.373a6.074 6.074 0 01-8.577 0l-8.577-8.577a6.065 6.065 0 010-8.577l2.146 2.144a4.549 4.549 0 000 6.433l6.432 6.432a4.549 4.549 0 006.433 0zm4.289 0l-6.437-6.434 1.072-1.072 6.432 6.433z"/><path d="M73.465 31.628a24.108 24.108 0 00-11.3-14.73 24.427 24.427 0 00-4.548-2.038V7.581A7.59 7.59 0 0050.033 0H7.581A7.59 7.59 0 000 7.581v75.813a7.59 7.59 0 007.581 7.581h42.452a7.59 7.59 0 007.581-7.581V60.922a24.209 24.209 0 0015.851-29.294zM18.194 3.033H39.42v1.516a1.516 1.516 0 01-1.52 1.516H19.71a1.516 1.516 0 01-1.516-1.516zm31.839 84.91H7.581a4.549 4.549 0 01-4.548-4.549V7.581a4.549 4.549 0 014.548-4.549h7.581v1.517A4.549 4.549 0 0019.71 9.1H37.9a4.549 4.549 0 004.548-4.549V3.033h7.581a4.549 4.549 0 014.548 4.549v6.511A24.226 24.226 0 0028.241 48.52l-3.846 8.47a1.516 1.516 0 001.78 2.091l8.574-2.346a24.04 24.04 0 0019.833 5v21.659a4.549 4.549 0 01-4.549 4.549zM68.415 48.52a21.2 21.2 0 01-32.308 5.4 1.516 1.516 0 00-.993-.371 1.569 1.569 0 00-.4.053L28.49 55.3l2.81-6.19a1.516 1.516 0 00-.038-1.331 21.216 21.216 0 1137.146.741z"/><path d="M9.098 21.228h15.163v3.033H9.098zm0 6.065h15.163v3.033H9.098zm0 6.065h12.13v3.033H9.098zm0 6.065h12.13v3.033H9.098zm0 6.065h12.13v3.033H9.098zm0 6.065h12.13v3.033H9.098zm0 12.13h33.358v3.033H9.098zm0 6.065h39.423v3.033H9.098zm0 6.065h39.423v3.033H9.098z"/></svg>