<svg xmlns="http://www.w3.org/2000/svg" width="74.302" height="84.944" viewBox="0 0 74.302 84.944"><path d="M58.754 20.847a34.433 34.433 0 1012.9 26.852 34.433 34.433 0 00-12.9-26.852zm0 0" fill="#6065fc" opacity=".5"/><g fill="#3e3d42"><path d="M62.609 20.738l2.966-2.965a2.65 2.65 0 00-3.682-3.813l-.065.065-3.336 3.336a36.829 36.829 0 00-18.64-6.627V5.3h5.3a2.65 2.65 0 100-5.3h-15.9a2.65 2.65 0 000 5.3h5.3v5.435a37.15 37.15 0 1028.058 10zM39.852 79.363V74.2a2.65 2.65 0 00-5.3 0v5.165A31.815 31.815 0 015.538 50.349H10.7a2.65 2.65 0 100-5.3H5.538a31.815 31.815 0 0129.014-29.015V21.2a2.65 2.65 0 005.3 0v-5.166a31.815 31.815 0 0129.014 29.015H63.7a2.65 2.65 0 000 5.3h5.164a31.816 31.816 0 01-29.012 29.014zm0 0"/><path d="M37.201 29.149a2.65 2.65 0 00-2.65 2.65v15.9a2.65 2.65 0 105.3 0v-15.9a2.65 2.65 0 00-2.65-2.65zm0 0"/></g></svg>