<svg version="1.1" baseProfile="tiny" id="Слой_1" xmlns="http://www.w3.org/2000/svg" xmlns:xlink="http://www.w3.org/1999/xlink" x="0" y="0" viewBox="0 0 2000 2000" xml:space="preserve"><g id="Globus"><circle fill="none" stroke="#000" stroke-width="12" stroke-miterlimit="10" cx="999.4" cy="1000.2" r="905.1"/><circle fill="none" stroke="#000" stroke-width="6" stroke-miterlimit="10" cx="999.4" cy="1000.2" r="977.6"/><path d="M587.4 244.6h828.2v10.7H587.4zm0 1524.1h828.2v10.7H587.4z"/><path fill="none" stroke="#000" stroke-width="5" stroke-miterlimit="10" d="M311.6 1097.6c48.2 534.9 531.9 756.5 531.9 756.5m0-1690.6s-179 83.4-330.1 269.3m1166.9 667.5c-50.7 531.3-531.5 751.6-531.5 751.6m0-1690.6s180.7 84.2 332.2 271.9M787.3 1682.6c64.2 105.9 118.1 169.3 118.1 169.3m-256.3-456.3c1.6 4.5 3.3 9 4.9 13.4M905.4 163.5S796.7 290.6 704.3 485.9m507.6 1194.4c-65.3 108.6-120.8 173.8-120.8 173.8m255.6-454.5c-2.5 6.9-5 13.8-7.6 20.6M1267.5 438c7.9 15.3 15.8 31.2 23.6 47.6m-200-320s34.9 40.8 81.9 111.6M946.5 1756c14.2 60.7 24 97 24 97m0-1688.5s-11.3 40.3-27.2 107m106.6 1482.6c-14.7 63.1-24.9 101-24.9 101m0-1688.4s9.2 32.8 22.7 88.3"/><path d="M1007.7 1655.6l-1.3-10.7h-21.6l-1.2 10.7zm245.7 0h320.2v-10.7h-302.1c-5.2 3.1-11.4 6.7-18.1 10.7zm-528.6-10.7H425.1v10.7h317.2c-5.9-3.6-11.8-7.2-17.5-10.7zm659.2-162.2l8.9 10.6h323.7v-10.6zm-778.5 0H282.1v10.6h315.7zm-228.8-219.9H175.4v10.7H382c-1.6-3.2-3.4-6.9-5.3-10.7zm1245.4 0c-1.7 3.6-3.4 7.2-5.1 10.7h206.3v-10.7h-201.2zM297.2 1000.2H134.8v10.7h164.3c-.7-3.6-1.3-7.2-1.9-10.7zm1401.8 0c-.3 3.8-.6 7.4-.9 10.7H1866v-10.7h-167zM296.2 737.7H175.4v10.7h119.1c.5-3.3 1-6.9 1.7-10.7zm1405 0c.6 3.6 1.1 7.2 1.6 10.7h120.5v-10.7h-122.1zM720.3 517.8c1.2 3.4 2.2 7 3 10.7h129l1.3-10.7H720.3zm411.1 0c.3 3.4.7 6.9 1.3 10.7h138.9c.6-3.3 1.3-7 2.2-10.7h-142.4zm-747.9 0H282.1v10.7h93.4c2.4-3.2 5.1-6.9 8-10.7zm1231.4 0c2.5 3 5.5 6.6 8.7 10.7h93v-10.7h-101.7zM873.4 355.6H425.1v10.7h444.6c1.1-3.2 2.3-6.8 3.7-10.7zm410.4 10.7h289.7v-10.7h-293.2c1.3 3.2 2.5 6.8 3.5 10.7z"/></g><path id="Eagle" d="M1682.1 816.4C1671 489 1488.7 455.6 1436.6 451.8c-63.1-4.5-137.6 33.5-141.4 89.3-3.7 55.8 44.6 74.4 44.6 74.4s-29.6 37.2-74.4 37.2c-48.4 0-148.8 0-160-137.6-11.2-137.6 104.2-133.9 148.8-104.2 0 0 40.9-67-85.6-107.9 0 0-11.2-3.7-59.5 0 0 0-14.9-26-70.7-22.3-55.8 3.7-133.9 0-152.5 133.9-7.4 133.9 0 212-119 238.1-55.8 11.2-100.4-18.6-111.6-37.2 0 0 44.6-22.3 44.6-67s-44.6-85.6-107.9-93-111.6 11.2-152.5 40.9c-40.9 29.8-130.2 145.1-126.5 372 3.7 226.9 78.1 390.6 152.5 494.7 0 0 100.4-96.7 119-152.5 0 0 40.9 11.2-40.9 178.6-81.8 152.5 122.8 0 215.8-208.3 0 0 94.5-9-148.8 338.5 0 0 95.8 115.6 337.1 209.8l49.4-362.2 45 362.7c77.5-29 232.2-96.4 342.3-206.5 0 0-176-197.9-152.5-342.2 0 0 93 197.2 212 267.8 93 26-81.8-156.2-37.2-241.8 0 0 67 107.9 119 156.2.2 0 169.2-171 156.4-546.8zm-651.5-469.9l-6.4-10.7 29.9-4.3-23.5 15z"/></svg>