<svg xmlns="http://www.w3.org/2000/svg" viewBox="0 0 1000 1000"><g id="4e3a30ca-6c75-4855-a174-97e3364851eb" data-name="Слой 1"><path d="M879.75 236.42c-7-9.93-14.35-19.6-22.16-28.92C772.86 105.81 645.34 41 503 41h-1.11c-.51 0-1.05.06-1.59.06-141.3.78-267.72 65.43-351.96 166.44q-11.65 14-22.16 28.92a460 460 0 000 532.34c7 9.93 14.39 19.6 22.16 28.92 84.22 101 210.62 165.66 351.93 166.48.54 0 1.08.06 1.59.06h1.09c142.39 0 269.89-64.83 354.64-166.52 7.77-9.32 15.14-19 22.16-28.94a460 460 0 000-532.34zM179 774.9c25.26-16.52 54.48-31.12 87-43.28 24.29 71.82 59.58 131.61 102 172.54-74.42-25.06-139.42-70.45-189-129.26zm455.51 130.43C677.59 864.27 713.45 803.76 738 731c33.26 12.27 63.18 27.12 88.92 44-50.33 59.63-116.58 105.49-192.41 130.33zm214.73-159.28c-28.65-19.15-61.85-35.94-98.55-49.72C727 730.8 702.75 755 682.31 771.62c-38.94 85.55-95.95 143.11-160.4 153.07v-70.38q-9.3.68-18.91.69t-19-.7V925c-66.2-9.06-124.67-68.24-164.06-156.52-19.7-16.54-42.57-40-64.86-72.61l.12.46c-36.71 13.81-69.87 30.57-98.54 49.75a420.92 420.92 0 01-76-209.48h100.4q-4.22-18.14-7.11-37.88H79.3a421.36 421.36 0 0177.39-239.53 443.92 443.92 0 0046.9 27.18c8.47-13.82 17-23.41 23.73-29.14a407.9 407.9 0 01-48.4-27A424.93 424.93 0 01368 101c-34.44 33.23-64.17 78.92-87.14 133.36a108.41 108.41 0 0124.17.23 78.61 78.61 0 0114.61 3.12C359 148.93 417.64 89.32 484 80.21V149a198.5 198.5 0 0120-1q9.11 0 17.91.81V80.49c65.48 10.11 123.22 69.39 162.14 157.17a80.29 80.29 0 0132.87-4.88c1.58.11 3.4.28 5.44.53-23.17-54.59-53.13-100.31-87.85-133.44A424.84 424.84 0 01827 230.24a406 406 0 01-48.64 27.09 125 125 0 0125.41 28.32 439.25 439.25 0 0045.5-26.47 421.41 421.41 0 0177.35 239.51h-94c-1.79 13.42-4.05 26.05-6.67 37.9h99.29a420.26 420.26 0 01-76 209.46z"/><path d="M805.69 419.12c-4.93-144.84-85.59-159.66-108.63-161.3-27.91-2-60.9 14.81-62.55 39.5s19.75 32.92 19.75 32.92-13.09 16.46-32.91 16.46c-21.4 0-65.84 0-70.78-60.9s46.09-59.26 65.84-46.09c0 0 18.1-29.63-37.86-47.73 0 0-4.94-1.65-26.34 0 0 0-6.58-11.52-31.27-9.88s-59.25 0-67.48 59.26c-3.29 59.25 0 93.82-52.67 105.34-24.69 4.94-44.44-8.23-49.38-16.46 0 0 19.75-9.88 19.75-29.63s-19.75-37.86-47.73-41.15-49.38 4.94-67.49 18.11-57.61 64.19-56 164.59 34.6 172.84 67.52 218.92c0 0 44.44-42.8 52.67-67.49 0 0 18.11 4.94-18.1 79-36.21 67.48 54.32 0 95.46-92.18 0 0 41.81-4-65.83 149.79 0 0 42.38 51.14 149.16 92.85l21.86-160.29 19.89 160.47c34.31-12.83 102.74-42.67 151.43-91.38 0 0-77.89-87.55-67.49-151.43 0 0 41.15 87.24 93.82 118.51 41.15 11.53-36.21-69.13-16.46-107 0 0 29.63 47.73 52.67 69.13.02.02 74.82-75.66 69.15-241.94z"/><circle cx="517.26" cy="215.03" r="4.9" fill="#fff"/></g></svg>